<?xml version="1.0" standalone="no"?>
<!DOCTYPE svg PUBLIC "-//W3C//DTD SVG 20010904//EN"
 "http://www.w3.org/TR/2001/REC-SVG-20010904/DTD/svg10.dtd">
<svg version="1.0" xmlns="http://www.w3.org/2000/svg"
 width="243.000000pt" height="243.000000pt" viewBox="0 0 243.000000 243.000000"
 preserveAspectRatio="xMidYMid meet">
<metadata>
Created by potrace 1.11, written by Peter Selinger 2001-2013
</metadata>
<g transform="translate(0.000000,243.000000) scale(0.100000,-0.100000)"
fill="#000000" stroke="none">
<path d="M1107 2364 c-1 -1 -33 -4 -72 -8 -82 -8 -160 -21 -160 -26 0 -1 -9
-3 -20 -5 -37 -5 -157 -46 -190 -65 -195 -110 -274 -223 -332 -475 -2 -11 -6
-36 -8 -55 -2 -19 -4 -35 -5 -35 -4 0 -16 -115 -27 -260 -13 -167 -5 -535 13
-630 3 -16 7 -41 9 -55 11 -91 18 -126 26 -134 5 -6 9 -19 9 -29 0 -11 14 -61
31 -111 56 -162 169 -280 314 -326 22 -7 46 -17 53 -23 6 -5 12 -7 12 -4 0 3
15 1 33 -4 17 -5 46 -12 62 -14 17 -3 41 -8 55 -10 53 -11 67 -13 130 -20 90
-11 245 -12 305 -3 28 4 68 9 90 12 120 15 291 78 380 139 87 60 156 172 191
310 1 4 2 8 4 10 1 1 3 9 5 17 1 8 10 47 19 85 22 92 24 100 31 170 4 33 9 71
12 85 7 39 8 416 0 502 -12 132 -24 234 -31 268 -1 8 -6 38 -11 65 -4 28 -13
56 -19 64 -6 8 -10 16 -8 18 6 6 -10 68 -22 82 -6 8 -10 15 -8 15 7 2 -36 100
-61 141 -37 61 -109 143 -153 173 -34 22 -158 81 -184 86 -14 3 -59 12 -100
21 -41 9 -97 19 -125 22 -50 5 -244 11 -248 7z"/>
</g>
</svg>
